<svg width="336" height="320" viewBox="0 0 336 320" fill="none" xmlns="http://www.w3.org/2000/svg">
<path d="M191.83 297.831C188.712 297.83 185.695 296.724 183.316 294.709C180.937 292.693 179.349 289.899 178.835 286.823L178.831 286.797L178.848 286.777C179.691 285.768 180.372 284.634 180.867 283.416C180.278 284.172 179.565 284.823 178.76 285.343L178.678 285.398L178.673 285.299C178.662 285.081 178.657 284.864 178.657 284.655C178.65 282.414 179.217 280.209 180.305 278.25C181.392 276.292 182.964 274.645 184.87 273.467C182.937 271.45 181.482 269.023 180.614 266.368C179.746 263.712 179.486 260.895 179.854 258.125C180.222 255.355 181.209 252.704 182.741 250.367C184.273 248.03 186.311 246.069 188.703 244.627C191.096 243.185 193.783 242.3 196.564 242.037C199.345 241.775 202.15 242.142 204.77 243.111C207.39 244.08 209.759 245.626 211.701 247.635C213.642 249.644 215.107 252.064 215.987 254.716L216.003 254.766L215.954 254.786C214.832 255.27 213.625 255.524 212.404 255.534C213.676 255.894 214.996 256.054 216.317 256.007L216.362 256.006L216.373 256.05C216.742 257.531 216.929 259.051 216.929 260.577C216.929 260.632 216.928 260.687 216.928 260.742C216.924 261.928 217.171 263.102 217.651 264.187C218.132 265.272 218.835 266.243 219.716 267.038C221.123 268.319 222.237 269.889 222.979 271.641C223.722 273.393 224.076 275.285 224.018 277.187C223.959 279.089 223.49 280.956 222.641 282.659C221.792 284.363 220.585 285.862 219.102 287.053L219.075 287.075L219.043 287.061C217.095 286.177 215.739 285.19 214.815 283.979C215.44 285.504 216.351 286.896 217.498 288.079L217.548 288.13L217.486 288.167C215.517 289.314 213.285 289.931 211.007 289.958C208.729 289.985 206.482 289.421 204.487 288.321C203.685 291.06 202.02 293.466 199.739 295.18C197.458 296.894 194.683 297.824 191.83 297.831V297.831Z" fill="#F2F2F2"/>
<path d="M187.137 318.818C187.08 318.818 187.024 318.798 186.981 318.76C186.937 318.722 186.909 318.67 186.901 318.613C186.275 313.03 186.237 307.398 186.789 301.807C187.615 292.989 190.268 280.287 198.215 269.854C198.234 269.829 198.258 269.808 198.285 269.792C198.312 269.776 198.343 269.766 198.374 269.762C198.405 269.757 198.437 269.759 198.467 269.767C198.498 269.775 198.526 269.789 198.551 269.808C198.577 269.827 198.598 269.851 198.613 269.879C198.629 269.906 198.639 269.936 198.644 269.967C198.648 269.998 198.646 270.03 198.638 270.061C198.629 270.091 198.615 270.12 198.596 270.145C190.717 280.487 188.086 293.096 187.265 301.852C186.717 307.405 186.753 313 187.374 318.545C187.379 318.579 187.377 318.614 187.367 318.647C187.357 318.68 187.341 318.71 187.318 318.736C187.296 318.762 187.268 318.783 187.237 318.797C187.205 318.811 187.172 318.818 187.137 318.818V318.818Z" fill="#3F3D56"/>
<path d="M191.11 283.649C191.06 283.649 191.01 283.633 190.969 283.603C190.928 283.573 190.898 283.531 190.882 283.483C190.867 283.435 190.867 283.383 190.882 283.335C190.898 283.287 190.928 283.245 190.969 283.215C193.234 281.682 195.68 280.437 198.252 279.507C202.27 278.036 208.38 276.702 214.67 278.705C214.73 278.724 214.781 278.766 214.81 278.823C214.839 278.879 214.845 278.945 214.825 279.005C214.806 279.066 214.764 279.116 214.707 279.145C214.651 279.175 214.585 279.18 214.525 279.161C208.363 277.2 202.364 278.511 198.416 279.957C195.886 280.871 193.479 282.095 191.251 283.603C191.21 283.633 191.161 283.649 191.11 283.649V283.649Z" fill="#3F3D56"/>
<path d="M70.5663 65.1456C83.4197 65.1456 93.8395 54.7238 93.8395 41.8679C93.8395 29.0119 83.4197 18.5901 70.5663 18.5901C57.7129 18.5901 47.2931 29.0119 47.2931 41.8679C47.2931 54.7238 57.7129 65.1456 70.5663 65.1456Z" fill="#FF6584"/>
<path d="M68.7215 54.0562H65.7447V35.7231C65.7447 33.2455 64.7607 30.8695 63.0091 29.1176C61.2576 27.3657 58.8819 26.3815 56.4049 26.3815H43.5059V0H41.4372V26.3815H23.853V54.0562H6.52742V319.423H103.758V89.0991C103.758 79.8051 100.066 70.8918 93.4957 64.32C86.9252 57.7482 78.0137 54.0562 68.7215 54.0562V54.0562Z" fill="#F2F2F2"/>
<path d="M157.785 215.707H155.217V212.117C155.216 209.736 154.305 207.445 152.67 205.713C151.036 203.982 148.802 202.941 146.425 202.803V178.463H144.356V202.775H135.047V215.707H101.947V319.681H175.387V233.313C175.387 231.001 174.932 228.712 174.047 226.576C173.163 224.44 171.866 222.499 170.231 220.864C168.597 219.229 166.656 217.932 164.521 217.048C162.385 216.163 160.096 215.707 157.785 215.707V215.707Z" fill="#F2F2F2"/>
<path d="M299.511 141.274V135.042C299.51 132.66 298.599 130.37 296.964 128.638C295.33 126.907 293.095 125.865 290.719 125.728V101.388H288.65V125.7H279.341V141.218H235.38V319.681H332.61V176.261C332.61 167.303 329.179 158.685 323.023 152.178C316.867 145.671 308.454 141.769 299.511 141.274Z" fill="#F2F2F2"/>
<path d="M264.342 166.565H251.413V176.911H264.342V166.565Z" fill="white"/>
<path d="M285.547 166.565H272.617V176.911H285.547V166.565Z" fill="white"/>
<path d="M306.751 166.565H293.822V176.911H306.751V166.565Z" fill="white"/>
<path d="M264.342 192.947H251.413V203.293H264.342V192.947Z" fill="white"/>
<path d="M285.547 192.947H272.617V203.293H285.547V192.947Z" fill="white"/>
<path d="M306.751 192.947H293.822V203.293H306.751V192.947Z" fill="white"/>
<path d="M264.342 219.328H251.413V229.674H264.342V219.328Z" fill="white"/>
<path d="M285.547 219.328H272.617V229.674H285.547V219.328Z" fill="white"/>
<path d="M306.751 219.328H293.822V229.674H306.751V219.328Z" fill="white"/>
<path d="M264.342 245.71H251.413V256.055H264.342V245.71Z" fill="white"/>
<path d="M285.547 245.71H272.617V256.055H285.547V245.71Z" fill="white"/>
<path d="M306.751 245.71H293.822V256.055H306.751V245.71Z" fill="white"/>
<path d="M264.342 272.091H251.413V282.437H264.342V272.091Z" fill="white"/>
<path d="M285.547 272.091H272.617V282.437H285.547V272.091Z" fill="white"/>
<path d="M306.751 272.091H293.822V282.437H306.751V272.091Z" fill="white"/>
<path d="M264.342 298.473H251.413V308.818H264.342V298.473Z" fill="white"/>
<path d="M285.547 298.473H272.617V308.818H285.547V298.473Z" fill="white"/>
<path d="M306.751 298.473H293.822V308.818H306.751V298.473Z" fill="white"/>
<path d="M76.0883 75.0062H34.1966V78.1099H76.0883V75.0062Z" fill="white"/>
<path d="M76.0883 94.1457H34.1966V97.2494H76.0883V94.1457Z" fill="white"/>
<path d="M76.0883 113.285H34.1966V116.389H76.0883V113.285Z" fill="white"/>
<path d="M76.0883 132.425H34.1966V135.528H76.0883V132.425Z" fill="white"/>
<path d="M76.0883 151.564H34.1966V154.668H76.0883V151.564Z" fill="white"/>
<path d="M76.0883 170.704H34.1966V173.807H76.0883V170.704Z" fill="white"/>
<path d="M76.0883 189.843H34.1966V192.947H76.0883V189.843Z" fill="white"/>
<path d="M76.0883 208.983H34.1966V212.086H76.0883V208.983Z" fill="white"/>
<path d="M76.0883 228.122H34.1966V231.226H76.0883V228.122Z" fill="white"/>
<path d="M76.0883 247.262H34.1966V250.365H76.0883V247.262Z" fill="white"/>
<path d="M76.0883 266.401H34.1966V269.505H76.0883V266.401Z" fill="white"/>
<path d="M76.0883 285.541H34.1966V288.644H76.0883V285.541Z" fill="white"/>
<path d="M123.928 229.674H110.998V240.02H123.928V229.674Z" fill="white"/>
<path d="M145.132 229.674H132.202V240.02H145.132V229.674Z" fill="white"/>
<path d="M166.336 229.674H153.407V240.02H166.336V229.674Z" fill="white"/>
<path d="M124.186 256.055H111.257V266.401H124.186V256.055Z" fill="white"/>
<path d="M145.391 256.055H132.461V266.401H145.391V256.055Z" fill="white"/>
<path d="M166.595 256.055H153.666V266.401H166.595V256.055Z" fill="white"/>
<path d="M124.445 282.437H111.515V292.783H124.445V282.437Z" fill="white"/>
<path d="M145.649 282.437H132.72V292.783H145.649V282.437Z" fill="white"/>
<path d="M166.854 282.437H153.924V292.783H166.854V282.437Z" fill="white"/>
<path d="M51.2636 32.0716H38.3341V42.4173H51.2636V32.0716Z" fill="white"/>
<path d="M10.0782 293.92C11.1059 285.655 16.2274 277.511 24.1086 274.821C21.0005 283.328 21.0012 292.661 24.1105 301.168C25.3216 304.445 27.0097 307.963 25.8705 311.265C25.1617 313.32 23.4279 314.892 21.4897 315.875C19.5514 316.858 17.4003 317.326 15.2762 317.786L14.8581 318.131C11.4861 310.516 9.05044 302.186 10.0782 293.92Z" fill="#CACACA"/>
<path d="M24.1868 274.977C19.5972 280.121 16.7446 286.58 16.0342 293.438C15.855 294.911 15.9093 296.404 16.1948 297.86C16.5188 299.27 17.2144 300.568 18.2093 301.618C19.1173 302.616 20.1617 303.531 20.8113 304.732C21.1348 305.352 21.3236 306.033 21.3653 306.731C21.4071 307.429 21.3009 308.128 21.0536 308.782C20.48 310.428 19.3495 311.769 18.1984 313.042C16.9203 314.456 15.5703 315.904 15.027 317.778C14.9612 318.005 14.6127 317.889 14.6785 317.663C15.6237 314.402 18.7883 312.55 20.2975 309.613C21.0017 308.243 21.2972 306.652 20.6371 305.205C20.0598 303.94 18.9837 302.995 18.0556 301.993C17.07 300.983 16.3467 299.747 15.9489 298.392C15.5901 296.955 15.4785 295.467 15.6189 293.992C15.8819 290.667 16.666 287.403 17.9426 284.321C19.38 280.796 21.4097 277.543 23.944 274.702C24.1009 274.526 24.3428 274.803 24.1869 274.977H24.1868Z" fill="white"/>
<path d="M16.133 291.216C14.9988 290.941 13.9995 290.271 13.3135 289.327C12.6274 288.382 12.2993 287.225 12.3877 286.061C12.4064 285.825 12.7731 285.843 12.7544 286.079C12.67 287.163 12.9758 288.241 13.6164 289.119C14.2571 289.997 15.1905 290.617 16.2481 290.867C16.4778 290.922 16.3614 291.27 16.133 291.216H16.133Z" fill="white"/>
<path d="M17.6823 301.173C19.7307 299.949 21.2428 297.999 21.9172 295.71C21.9838 295.483 22.3323 295.598 22.2657 295.825C21.5595 298.206 19.9818 300.232 17.8474 301.501C17.6439 301.621 17.4799 301.293 17.6823 301.173V301.173Z" fill="white"/>
<path d="M19.7205 281.144C20.1371 281.342 20.5964 281.433 21.057 281.41C21.5177 281.386 21.9654 281.249 22.3598 281.01C22.5617 280.887 22.7255 281.215 22.5249 281.338C22.0879 281.6 21.5933 281.751 21.0844 281.778C20.5754 281.805 20.0677 281.707 19.6054 281.492C19.5601 281.476 19.5229 281.443 19.5012 281.4C19.4795 281.356 19.475 281.307 19.4887 281.261C19.5041 281.214 19.5372 281.176 19.5806 281.154C19.624 281.133 19.6742 281.129 19.7205 281.144H19.7205Z" fill="white"/>
<path d="M48.1318 289.584C48.008 289.665 47.8841 289.745 47.7601 289.829C46.1003 290.921 44.5319 292.145 43.0704 293.491C42.9557 293.593 42.8411 293.699 42.7296 293.804C39.2431 297.084 36.3956 300.982 34.3319 305.302C33.5124 307.021 32.8248 308.8 32.2751 310.624C31.5161 313.143 30.8935 315.935 29.3912 317.995C29.2368 318.212 29.0692 318.419 28.8893 318.615H15.3124C15.2815 318.599 15.2505 318.587 15.2195 318.571L14.6774 318.596C14.6992 318.5 14.7239 318.401 14.7456 318.305C14.758 318.249 14.7735 318.193 14.7859 318.138C14.7951 318.1 14.8045 318.063 14.8107 318.029C14.8137 318.017 14.8169 318.004 14.8199 317.995C14.8261 317.961 14.8355 317.93 14.8417 317.899C14.978 317.344 15.1184 316.79 15.2629 316.235C15.2629 316.232 15.2629 316.232 15.266 316.229C16.327 311.993 17.8867 307.897 19.9124 304.028C19.9744 303.913 20.0363 303.796 20.1045 303.681C21.0425 301.969 22.1189 300.335 23.323 298.798C23.985 297.959 24.689 297.153 25.4325 296.385C27.3572 294.403 29.5816 292.736 32.0242 291.446C36.8937 288.875 42.5313 287.889 47.7354 289.46C47.8685 289.5 47.9987 289.541 48.1318 289.584Z" fill="#CACACA"/>
<path d="M48.1013 289.756C41.3405 291.1 35.1747 294.539 30.4796 299.587C29.4496 300.655 28.5944 301.88 27.9456 303.215C27.3556 304.536 27.1299 305.99 27.2922 307.428C27.4165 308.772 27.6993 310.131 27.4949 311.482C27.3801 312.171 27.1208 312.829 26.734 313.411C26.3473 313.994 25.8418 314.488 25.2508 314.861C23.8023 315.83 22.0922 316.22 20.4067 316.543C18.5353 316.902 16.5858 317.245 15.0239 318.414C14.8346 318.556 14.6259 318.254 14.8149 318.113C17.5323 316.078 21.1739 316.505 24.1467 315.069C25.5338 314.399 26.7275 313.307 27.0711 311.754C27.3716 310.397 27.0812 308.994 26.9436 307.635C26.7648 306.235 26.9314 304.812 27.429 303.491C28.0078 302.128 28.8144 300.872 29.8142 299.779C32.026 297.282 34.6165 295.149 37.4908 293.457C40.7606 291.508 44.3396 290.132 48.0731 289.39C48.3042 289.345 48.3309 289.711 48.1013 289.756H48.1013Z" fill="white"/>
<path d="M31.8957 297.872C31.156 296.969 30.7612 295.833 30.7818 294.666C30.8025 293.499 31.2373 292.377 32.0085 291.501C32.1652 291.324 32.4471 291.559 32.2902 291.736C31.5705 292.551 31.1656 293.596 31.1486 294.683C31.1316 295.77 31.5036 296.827 32.1975 297.663C32.348 297.845 32.0455 298.053 31.8957 297.872V297.872Z" fill="white"/>
<path d="M27.1394 306.755C29.5113 307.012 31.8928 306.365 33.8091 304.944C33.9988 304.803 34.2076 305.105 34.0181 305.245C32.0212 306.721 29.5415 307.389 27.0739 307.116C26.8387 307.09 26.9055 306.729 27.1394 306.755V306.755Z" fill="white"/>
<path d="M40.8232 291.991C41.0366 292.4 41.3483 292.749 41.7302 293.008C42.1121 293.267 42.5523 293.426 43.0112 293.473C43.2466 293.496 43.1795 293.857 42.9456 293.834C42.4388 293.78 41.9529 293.603 41.5303 293.318C41.1078 293.033 40.7614 292.649 40.5214 292.2C40.4953 292.159 40.4855 292.11 40.4941 292.063C40.5027 292.015 40.5291 291.973 40.5678 291.944C40.6079 291.917 40.6572 291.906 40.705 291.915C40.7528 291.924 40.7953 291.951 40.8232 291.991Z" fill="white"/>
<path d="M256.774 293.92C257.801 285.655 262.923 277.511 270.804 274.821C267.696 283.328 267.697 292.661 270.806 301.168C272.017 304.445 273.705 307.963 272.566 311.265C271.857 313.32 270.123 314.892 268.185 315.875C266.247 316.858 264.096 317.326 261.972 317.786L261.554 318.131C258.182 310.516 255.746 302.186 256.774 293.92Z" fill="#CACACA"/>
<path d="M270.882 274.977C266.293 280.121 263.44 286.58 262.73 293.438C262.551 294.911 262.605 296.404 262.89 297.86C263.214 299.27 263.91 300.568 264.905 301.618C265.813 302.616 266.857 303.531 267.507 304.732C267.83 305.352 268.019 306.033 268.061 306.731C268.103 307.429 267.996 308.128 267.749 308.782C267.176 310.428 266.045 311.769 264.894 313.042C263.616 314.456 262.266 315.904 261.723 317.778C261.657 318.005 261.308 317.889 261.374 317.663C262.319 314.402 265.484 312.55 266.993 309.613C267.697 308.243 267.993 306.652 267.333 305.205C266.755 303.94 265.679 302.995 264.751 301.993C263.766 300.983 263.042 299.747 262.644 298.392C262.286 296.955 262.174 295.467 262.314 293.992C262.577 290.667 263.362 287.403 264.638 284.321C266.076 280.796 268.105 277.543 270.64 274.702C270.796 274.526 271.038 274.803 270.882 274.977V274.977Z" fill="white"/>
<path d="M262.828 291.216C261.694 290.941 260.695 290.271 260.009 289.327C259.323 288.382 258.995 287.225 259.083 286.061C259.102 285.825 259.469 285.843 259.45 286.079C259.366 287.163 259.671 288.241 260.312 289.119C260.953 289.997 261.886 290.617 262.944 290.867C263.173 290.922 263.057 291.27 262.828 291.216V291.216Z" fill="white"/>
<path d="M264.378 301.173C266.426 299.949 267.938 297.999 268.613 295.71C268.679 295.483 269.028 295.598 268.961 295.825C268.255 298.206 266.677 300.232 264.543 301.501C264.339 301.621 264.175 301.293 264.378 301.173V301.173Z" fill="white"/>
<path d="M266.416 281.144C266.833 281.342 267.292 281.433 267.753 281.41C268.213 281.386 268.661 281.249 269.055 281.01C269.257 280.887 269.421 281.215 269.22 281.338C268.783 281.6 268.289 281.751 267.78 281.778C267.271 281.805 266.763 281.707 266.301 281.492C266.256 281.476 266.218 281.443 266.197 281.4C266.175 281.356 266.171 281.307 266.184 281.261C266.2 281.214 266.233 281.176 266.276 281.154C266.32 281.133 266.37 281.129 266.416 281.144H266.416Z" fill="white"/>
<path d="M294.827 289.584C294.703 289.665 294.58 289.745 294.456 289.829C292.796 290.921 291.227 292.145 289.766 293.491C289.651 293.593 289.537 293.699 289.425 293.804C285.939 297.084 283.091 300.982 281.027 305.302C280.208 307.021 279.52 308.8 278.971 310.624C278.212 313.143 277.589 315.935 276.087 317.995C275.932 318.212 275.765 318.419 275.585 318.615H262.008C261.977 318.599 261.946 318.587 261.915 318.571L261.373 318.596C261.395 318.5 261.419 318.401 261.441 318.305C261.454 318.249 261.469 318.193 261.481 318.138C261.491 318.1 261.5 318.063 261.506 318.029C261.509 318.017 261.512 318.004 261.515 317.995C261.522 317.961 261.531 317.93 261.537 317.899C261.673 317.344 261.814 316.79 261.958 316.235C261.958 316.232 261.958 316.232 261.961 316.229C263.022 311.993 264.582 307.897 266.608 304.028C266.67 303.913 266.732 303.796 266.8 303.681C267.738 301.969 268.814 300.335 270.018 298.798C270.68 297.959 271.385 297.153 272.128 296.385C274.053 294.403 276.277 292.736 278.72 291.446C283.589 288.875 289.227 287.889 294.431 289.46C294.564 289.5 294.694 289.541 294.827 289.584Z" fill="#CACACA"/>
<path d="M294.797 289.756C288.036 291.1 281.87 294.539 277.175 299.587C276.145 300.655 275.29 301.88 274.641 303.215C274.051 304.536 273.825 305.99 273.988 307.428C274.112 308.772 274.395 310.131 274.19 311.482C274.076 312.171 273.816 312.829 273.43 313.411C273.043 313.994 272.537 314.488 271.946 314.861C270.498 315.83 268.788 316.22 267.102 316.543C265.231 316.902 263.281 317.245 261.719 318.414C261.53 318.556 261.321 318.254 261.51 318.113C264.228 316.078 267.869 316.505 270.842 315.069C272.229 314.399 273.423 313.307 273.767 311.754C274.067 310.397 273.777 308.994 273.639 307.635C273.46 306.235 273.627 304.812 274.125 303.491C274.703 302.128 275.51 300.872 276.51 299.779C278.722 297.282 281.312 295.149 284.186 293.457C287.456 291.508 291.035 290.132 294.769 289.39C295 289.345 295.026 289.711 294.797 289.756H294.797Z" fill="white"/>
<path d="M278.591 297.872C277.852 296.969 277.457 295.833 277.477 294.666C277.498 293.499 277.933 292.377 278.704 291.501C278.861 291.324 279.143 291.559 278.986 291.736C278.266 292.551 277.861 293.596 277.844 294.683C277.827 295.77 278.199 296.827 278.893 297.663C279.044 297.845 278.741 298.053 278.591 297.872V297.872Z" fill="white"/>
<path d="M273.835 306.755C276.207 307.012 278.588 306.365 280.505 304.944C280.694 304.803 280.903 305.105 280.714 305.245C278.717 306.721 276.237 307.389 273.769 307.116C273.534 307.09 273.601 306.729 273.835 306.755V306.755Z" fill="white"/>
<path d="M287.519 291.991C287.732 292.4 288.044 292.749 288.426 293.008C288.808 293.267 289.248 293.426 289.707 293.473C289.942 293.496 289.875 293.857 289.641 293.834C289.134 293.78 288.648 293.603 288.226 293.318C287.803 293.033 287.457 292.649 287.217 292.2C287.191 292.159 287.181 292.11 287.19 292.063C287.198 292.015 287.225 291.973 287.263 291.944C287.303 291.917 287.353 291.906 287.401 291.915C287.448 291.924 287.491 291.951 287.519 291.991V291.991Z" fill="white"/>
<path d="M107.219 38.8026C106.139 38.0398 104.957 37.2444 103.635 37.2762C100.435 37.3532 98.71 42.0447 95.5136 41.8797C93.4751 41.7745 92.122 39.7033 90.2239 38.9523C87.7529 37.9747 84.6084 39.8868 84.3388 42.5309L84.6561 42.2404C94.2615 44.5825 104.229 45.043 114.01 43.5967C111.746 41.9987 109.483 40.4006 107.219 38.8026Z" fill="#F0F0F0"/>
<path d="M254.616 17.594C253.535 16.8312 252.354 16.0358 251.032 16.0676C247.832 16.1446 246.107 20.8361 242.91 20.6711C240.872 20.5659 239.519 18.4947 237.621 17.7437C235.15 16.7661 232.005 18.6782 231.735 21.3223L232.053 21.0318C241.658 23.3738 251.626 23.8344 261.406 22.3881C259.143 20.79 256.879 19.192 254.616 17.594Z" fill="#F0F0F0"/>
<path d="M172.384 103.98C171.304 103.218 170.122 102.422 168.8 102.454C165.6 102.531 163.875 107.222 160.678 107.058C158.64 106.952 157.287 104.881 155.389 104.13C152.918 103.152 149.773 105.065 149.504 107.709L149.821 107.418C159.426 109.76 169.394 110.221 179.174 108.774C176.911 107.176 174.648 105.578 172.384 103.98Z" fill="#F0F0F0"/>
<path d="M184.942 193.138C185.689 193.06 186.41 192.82 187.053 192.433C187.697 192.047 188.248 191.524 188.668 190.901C189.088 190.278 189.366 189.571 189.483 188.829C189.6 188.088 189.553 187.329 189.345 186.607L204.259 176.085L195.428 172.624L182.62 183.147C181.431 183.577 180.441 184.427 179.837 185.538C179.233 186.649 179.058 187.943 179.344 189.174C179.63 190.406 180.358 191.49 181.39 192.22C182.422 192.951 183.686 193.277 184.942 193.138H184.942Z" fill="#FFB6B6"/>
<path d="M285.502 199.972C285.84 199.302 286.026 198.565 286.049 197.814C286.071 197.064 285.929 196.317 285.632 195.628C285.334 194.938 284.89 194.322 284.328 193.823C283.767 193.324 283.104 192.954 282.384 192.739L281.584 174.502L273.903 180.066L275.841 196.532C275.56 197.764 275.741 199.057 276.35 200.165C276.958 201.274 277.952 202.12 279.143 202.544C280.334 202.968 281.639 202.941 282.811 202.467C283.983 201.993 284.941 201.105 285.502 199.972V199.972Z" fill="#FFB6B6"/>
<path d="M260.862 311.351H253.184L249.531 281.728L260.864 281.729L260.862 311.351Z" fill="#FFB6B6"/>
<path d="M262.82 318.795L238.062 318.794V318.481C238.063 315.925 239.078 313.473 240.885 311.666C242.692 309.858 245.143 308.843 247.699 308.843H247.7L252.222 305.411L260.66 308.843L262.821 308.843L262.82 318.795Z" fill="#2F2E41"/>
<path d="M212.106 311.147L204.507 310.049L205.127 280.208L216.343 281.83L212.106 311.147Z" fill="#FFB6B6"/>
<path d="M212.98 318.795L188.476 315.253L188.521 314.943C188.887 312.413 190.242 310.132 192.289 308.601C194.336 307.071 196.907 306.416 199.437 306.782L199.437 306.782L204.404 304.033L212.264 308.636L214.403 308.946L212.98 318.795Z" fill="#2F2E41"/>
<path d="M272.404 197.18C268.21 196.131 264.016 195.083 259.823 194.034C253.139 192.363 246.454 190.691 239.77 189.02L235.167 187.869C235.043 187.837 234.914 187.836 234.79 187.866C234.685 187.885 234.586 187.927 234.5 187.99C234.414 188.052 234.342 188.132 234.29 188.225C233.258 189.947 232.225 191.669 231.192 193.391L223.882 205.576C221.035 210.323 218.187 215.069 215.34 219.816L208.543 231.145C207.938 232.155 207.332 233.164 206.727 234.174C206.474 234.511 206.309 234.906 206.245 235.323C206.037 237.65 205.887 239.983 205.708 242.313C205.346 247.013 204.985 251.714 204.623 256.415L203.346 273.023C202.973 277.874 202.6 282.725 202.226 287.576C202.028 290.162 201.829 292.747 201.63 295.332L201.602 295.695C201.604 295.864 201.66 296.028 201.763 296.163C201.865 296.298 202.009 296.396 202.172 296.443L214.373 300.511L216.135 301.098C216.334 301.152 216.545 301.126 216.724 301.024C216.903 300.923 217.034 300.755 217.09 300.557C217.891 295.749 218.692 290.941 219.493 286.134C220.782 278.399 222.071 270.663 223.36 262.928C223.562 261.717 223.764 260.506 223.965 259.295C224.103 258.689 224.206 258.076 224.272 257.459C224.519 257.165 224.722 256.838 224.875 256.486C225.624 255.036 225.791 253.355 225.343 251.786L225.282 251.59C225.274 251.563 225.267 251.543 225.261 251.521C225.317 251.181 225.374 250.84 225.431 250.5C225.598 249.497 225.765 248.495 225.932 247.492C226.066 246.689 226.2 245.887 226.333 245.084C226.34 245.045 226.351 245.002 226.361 244.958C226.313 244.993 226.258 245.018 226.2 245.032C226.23 245.024 226.268 244.96 226.291 244.941C226.319 244.918 226.345 244.891 226.373 244.868C226.378 244.843 226.381 244.819 226.382 244.794C226.374 244.647 226.453 244.701 226.454 244.796C226.961 244.353 227.418 243.813 227.89 243.342C230.299 240.932 232.708 238.523 235.117 236.113C239.461 231.768 243.805 227.424 248.148 223.079V290.629C248.148 293.818 248.044 297.028 248.148 300.216C248.15 300.261 248.148 300.306 248.148 300.35C248.151 300.555 248.234 300.751 248.379 300.896C248.524 301.041 248.719 301.123 248.924 301.126H262.888C263.092 301.121 263.287 301.038 263.431 300.893C263.576 300.749 263.659 300.555 263.664 300.35C263.835 298.467 264.006 296.583 264.177 294.7C264.568 290.403 264.959 286.105 265.349 281.808C265.775 277.126 266.2 272.445 266.626 267.763L267.454 258.653C267.474 258.431 267.51 258.199 267.518 257.974C267.549 257.899 267.583 257.814 267.602 257.774C267.73 257.499 267.858 257.225 267.986 256.95C268.659 255.505 269.155 254.072 268.965 252.445C268.915 251.982 268.819 251.526 268.677 251.083C268.6 250.847 268.508 250.615 268.408 250.388C268.356 250.268 268.302 250.144 268.239 250.029C268.239 250.019 268.239 250.009 268.24 250C268.457 248.834 268.46 247.585 268.567 246.406C268.762 244.262 268.957 242.119 269.151 239.976L270.325 227.059L270.758 222.301L271.939 209.304C272.266 205.713 272.592 202.121 272.919 198.53C272.937 198.329 272.955 198.129 272.973 197.928C272.973 197.758 272.917 197.593 272.814 197.458C272.711 197.323 272.567 197.225 272.404 197.18V197.18Z" fill="#2F2E41"/>
<path d="M226.361 244.958C226.388 244.94 226.411 244.917 226.427 244.888C226.444 244.86 226.453 244.828 226.454 244.796C226.427 244.82 226.401 244.845 226.373 244.868C226.369 244.898 226.368 244.927 226.361 244.958Z" fill="#2F2E41"/>
<path d="M262.888 109.473L253.579 100.161V95.5059L234.96 100.161V109.473C234.96 109.473 220.996 137.406 225.651 151.373C228.385 159.576 229.513 172.596 229.979 181.946C230.023 182.836 231.21 183.855 231.243 184.67C231.272 185.389 228.118 187.123 228.14 187.774C228.275 191.84 230.306 193.272 230.306 193.272L272.197 197.928C271.907 194.523 272.708 193.702 272.617 190.36C272.587 189.259 270.038 185.765 270.031 184.67C270.025 183.641 271.562 182.456 271.576 181.432C271.585 180.772 271.599 180.114 271.617 179.456C271.926 168.093 273.56 157.145 276.852 146.717L262.888 109.473Z" fill="#FF6C63"/>
<path d="M272.883 190.114L271.94 154.546L252.931 120.322C251.968 118.585 251.734 116.537 252.28 114.627C252.827 112.717 254.109 111.103 255.845 110.138C257.581 109.173 259.629 108.937 261.539 109.482C263.448 110.027 265.064 111.308 266.029 113.044L286.423 149.76L286.42 149.834L285.288 171.235L283.745 179.476L284.657 181.985L284.241 189.573L272.883 190.114Z" fill="#6C63FF"/>
<path d="M198.301 185.899L186.855 178.494L214.596 154.06L229.237 117.748C229.648 116.727 230.28 115.809 231.087 115.06C231.893 114.311 232.855 113.748 233.904 113.413C234.952 113.078 236.062 112.978 237.153 113.12C238.245 113.262 239.292 113.643 240.219 114.236V114.236C241.691 115.178 242.788 116.605 243.32 118.269C243.852 119.934 243.786 121.732 243.134 123.354L227.424 162.319L220.043 166.76L217.259 170.569L214.884 170.455L214.107 173.115L209.667 175.061L198.301 185.899Z" fill="#6C63FF"/>
<path d="M258.233 74.8811C258.233 78.0582 257.292 81.1639 255.527 83.8055C253.762 86.4472 251.254 88.5061 248.319 89.7219C245.385 90.9377 242.155 91.2558 239.04 90.636C235.925 90.0162 233.063 88.4863 230.817 86.2398C228.571 83.9932 227.041 81.131 226.421 78.015C225.802 74.899 226.12 71.6691 227.335 68.7339C228.551 65.7987 230.609 63.2899 233.251 61.5248C235.892 59.7597 238.997 58.8176 242.173 58.8176V58.8176C246.422 58.807 250.501 60.485 253.513 63.4825C256.525 66.48 258.223 70.5514 258.233 74.8011C258.233 74.8278 258.234 74.8545 258.233 74.8811Z" fill="#FFB6B6"/>
<path d="M226.166 53.3049C228.048 49.2585 231.688 50.0586 234.873 51.4302C238.905 50.5356 242.74 47.8573 247.084 49.4412C251.364 55.6668 265.732 53.8351 262.675 63.9704C262.671 66.3991 267.244 64.9855 266.446 68.963C268.869 76.6177 257.702 91.1147 251.291 88.0619C252.877 85.1556 256.498 78.5546 251.005 77.8999C239.189 88.8969 249.786 56.9592 234.939 66.2472C230.023 70.747 223.293 57.8059 226.166 53.3049Z" fill="#2F2E41"/>
<path d="M335.384 320H0.615796C0.452785 319.999 0.296607 319.934 0.181508 319.819C0.0664081 319.703 0.00178528 319.547 0.00178528 319.384C0.00178528 319.221 0.0664081 319.065 0.181508 318.949C0.296607 318.834 0.452785 318.769 0.615796 318.768H335.384C335.547 318.769 335.703 318.834 335.818 318.949C335.934 319.065 335.998 319.221 335.998 319.384C335.998 319.547 335.934 319.703 335.818 319.819C335.703 319.934 335.547 319.999 335.384 320Z" fill="#CACACA"/>
<path d="M252.69 83.2698C252.901 82.7875 252.966 82.2539 252.876 81.7352C252.787 81.2164 252.547 80.7354 252.187 80.3517C251.911 80.0672 251.593 79.8275 251.244 79.6411L251.108 79.6056C250.718 79.5038 250.306 79.5319 249.934 79.6857C249.562 79.8395 249.25 80.1105 249.046 80.4576L248.974 80.5794C248.829 80.8266 248.743 81.1043 248.723 81.3904C248.703 81.6766 248.75 81.9635 248.86 82.2283L249.13 82.8786L247.416 85.707C247.342 85.8292 247.318 85.975 247.348 86.1146C247.378 86.2542 247.461 86.3769 247.579 86.4576L247.956 86.7159C248.017 86.7579 248.087 86.7872 248.159 86.8021C248.232 86.817 248.307 86.8172 248.38 86.8027C248.453 86.7882 248.522 86.7593 248.584 86.7177C248.646 86.6761 248.698 86.6226 248.739 86.5603L250.258 84.2346C250.413 84.3015 250.576 84.3469 250.743 84.3696C251.143 84.4239 251.55 84.3458 251.901 84.1473C252.253 83.9487 252.53 83.6405 252.69 83.2698V83.2698Z" fill="white"/>
<path d="M250.004 82.9223C249.913 82.8653 249.848 82.7745 249.824 82.6699C249.8 82.5653 249.818 82.4553 249.875 82.3642L250.475 81.4022C250.503 81.3569 250.54 81.3176 250.583 81.2865C250.627 81.2554 250.676 81.2332 250.728 81.2211C250.78 81.209 250.833 81.2073 250.886 81.2161C250.938 81.2248 250.989 81.2438 251.034 81.2721C251.079 81.3003 251.118 81.3372 251.149 81.3806C251.18 81.424 251.202 81.4731 251.214 81.525C251.226 81.577 251.228 81.6308 251.219 81.6833C251.21 81.7359 251.191 81.7862 251.162 81.8313L250.562 82.7933C250.505 82.8843 250.414 82.949 250.309 82.9732C250.205 82.9974 250.095 82.9791 250.004 82.9223V82.9223Z" fill="#2F2E41"/>
<path d="M193.515 194.98L186.006 198.827C185.556 199.057 185.033 199.099 184.551 198.944C184.07 198.788 183.67 198.448 183.439 197.998L173.703 178.989C173.473 178.539 173.431 178.015 173.586 177.534C173.742 177.052 174.081 176.652 174.531 176.421L182.04 172.574C182.49 172.344 183.013 172.302 183.495 172.457C183.976 172.612 184.376 172.952 184.607 173.402L194.343 192.412C194.573 192.862 194.615 193.385 194.46 193.867C194.305 194.348 193.965 194.749 193.515 194.98Z" fill="#3F3D56"/>
<path d="M182.226 173.144L181.39 173.572C181.315 173.611 181.259 173.677 181.233 173.757C181.208 173.837 181.215 173.923 181.253 173.998C181.331 174.151 181.345 174.328 181.292 174.491C181.24 174.654 181.125 174.79 180.972 174.868L176.885 176.962C176.732 177.04 176.555 177.054 176.392 177.002C176.229 176.949 176.093 176.834 176.015 176.682C175.977 176.607 175.91 176.551 175.83 176.525C175.751 176.499 175.664 176.506 175.589 176.544L174.852 176.922C174.511 177.097 174.253 177.401 174.136 177.766C174.018 178.131 174.05 178.528 174.224 178.87L183.891 197.744C184.066 198.085 184.37 198.343 184.735 198.461C185.1 198.579 185.497 198.547 185.838 198.372L193.211 194.594C193.553 194.419 193.81 194.116 193.928 193.75C194.046 193.385 194.014 192.988 193.84 192.647L184.173 173.772C183.998 173.431 183.694 173.173 183.329 173.056C182.964 172.938 182.567 172.97 182.226 173.144V173.144Z" fill="white"/>
<path d="M179.713 174.91L177.407 176.091C177.385 176.103 177.36 176.105 177.337 176.097C177.313 176.09 177.294 176.073 177.283 176.051C177.271 176.029 177.269 176.004 177.277 175.981C177.284 175.957 177.301 175.938 177.323 175.927L179.629 174.745C179.64 174.74 179.651 174.736 179.664 174.735C179.676 174.734 179.688 174.735 179.7 174.739C179.711 174.743 179.722 174.749 179.731 174.757C179.741 174.765 179.748 174.774 179.754 174.785C179.759 174.796 179.763 174.808 179.764 174.82C179.765 174.832 179.763 174.844 179.759 174.856C179.756 174.868 179.75 174.878 179.742 174.888C179.734 174.897 179.724 174.904 179.713 174.91V174.91Z" fill="white"/>
<path d="M180.033 174.716C180.074 174.716 180.107 174.683 180.107 174.642C180.107 174.601 180.074 174.568 180.033 174.568C179.992 174.568 179.959 174.601 179.959 174.642C179.959 174.683 179.992 174.716 180.033 174.716Z" fill="white"/>
<path d="M187.643 179.166C187.603 179.186 187.558 179.19 187.516 179.177C187.474 179.163 187.439 179.133 187.418 179.094L185.933 176.194C185.923 176.175 185.917 176.154 185.915 176.132C185.913 176.11 185.916 176.088 185.923 176.067C185.929 176.046 185.94 176.027 185.954 176.01C185.968 175.993 185.986 175.98 186.005 175.97C186.025 175.959 186.046 175.953 186.068 175.952C186.09 175.95 186.112 175.953 186.133 175.959C186.154 175.966 186.173 175.977 186.19 175.991C186.206 176.006 186.22 176.023 186.23 176.043L187.715 178.942C187.735 178.981 187.739 179.027 187.725 179.069C187.712 179.111 187.682 179.146 187.643 179.166V179.166Z" fill="#3F3D56"/>
<path d="M175.576 182.645C175.536 182.665 175.491 182.669 175.449 182.655C175.407 182.642 175.372 182.612 175.351 182.573L175.014 181.914C174.994 181.875 174.99 181.829 175.004 181.787C175.017 181.745 175.047 181.71 175.086 181.69C175.126 181.669 175.171 181.666 175.213 181.679C175.255 181.693 175.29 181.723 175.31 181.762L175.648 182.421C175.668 182.46 175.672 182.506 175.658 182.548C175.645 182.59 175.615 182.625 175.576 182.645V182.645Z" fill="#3F3D56"/>
<path d="M176.2 183.864C176.161 183.884 176.115 183.888 176.073 183.875C176.031 183.861 175.996 183.831 175.976 183.792L175.638 183.133C175.628 183.113 175.622 183.092 175.62 183.07C175.619 183.049 175.621 183.027 175.628 183.006C175.634 182.985 175.645 182.965 175.659 182.949C175.674 182.932 175.691 182.918 175.71 182.908C175.73 182.898 175.751 182.892 175.773 182.89C175.795 182.889 175.817 182.891 175.838 182.898C175.859 182.905 175.878 182.916 175.895 182.93C175.911 182.944 175.925 182.962 175.935 182.981L176.272 183.64C176.292 183.679 176.296 183.725 176.283 183.767C176.269 183.809 176.239 183.844 176.2 183.864V183.864Z" fill="#3F3D56"/>
</svg>
